<svg fill="#ffffff" version="1.1" id="Layer_1" xmlns="http://www.w3.org/2000/svg" xmlns:xlink="http://www.w3.org/1999/xlink" viewBox="0 0 512 512" xml:space="preserve"><g id="SVGRepo_bgCarrier" stroke-width="0"></g><g id="SVGRepo_tracerCarrier" stroke-linecap="round" stroke-linejoin="round"></g><g id="SVGRepo_iconCarrier"> <g> <g> <path d="M256.001,79.844c-96.183,0-174.432,78.25-174.432,174.432c0,65.832,36.949,125.647,95.024,155.339v51.509h158.818v-51.509 c58.074-29.692,95.023-89.505,95.023-155.339C430.432,158.094,352.182,79.844,256.001,79.844z M261.728,427.733h-9.939V321.884 h9.939V427.733z M312.069,383.725l-10.051,4.36v39.648h-6.898V321.884h6.551c22.024,0,39.942-17.919,39.942-39.943 S323.696,242,301.672,242s-39.943,17.918-39.943,39.942c0,2.232,0.193,4.418,0.547,6.551h-12.55 c0.354-2.134,0.547-4.32,0.547-6.551c0-22.024-17.918-39.942-39.942-39.942c-22.024,0-39.942,17.918-39.942,39.942 s17.918,39.943,39.942,39.943h8.068v105.848h-8.416v-39.648l-10.051-4.36c-51.619-22.392-84.972-73.205-84.972-129.449 c0-77.769,63.271-141.04,141.04-141.04s141.04,63.271,141.04,141.04C397.041,310.52,363.688,361.333,312.069,383.725z M295.12,281.943c0-3.612,2.94-6.55,6.551-6.55c3.612,0,6.55,2.938,6.55,6.55s-2.938,6.551-6.55,6.551 C298.059,288.494,295.12,285.555,295.12,281.943z M216.88,281.942c0,3.612-2.938,6.551-6.55,6.551s-6.55-2.94-6.55-6.551 c0-3.612,2.938-6.55,6.55-6.55S216.88,278.33,216.88,281.942z"></path> </g> </g> <g> <g> <rect x="191.422" y="478.609" width="129.158" height="33.391"></rect> </g> </g> <g> <g> <rect x="239.305" width="33.391" height="60.338"></rect> </g> </g> <g> <g> <rect x="127.254" y="30.02" transform="matrix(0.866 -0.5 0.5 0.866 -10.8083 80.0407)" width="33.391" height="60.337"></rect> </g> </g> <g> <g> <rect x="45.218" y="112.053" transform="matrix(0.5 -0.866 0.866 0.5 -92.2105 124.7273)" width="33.391" height="60.337"></rect> </g> </g> <g> <g> <rect x="1.725" y="237.579" width="60.338" height="33.391"></rect> </g> </g> <g> <g> <rect x="31.737" y="349.633" transform="matrix(0.866 -0.5 0.5 0.866 -174.8738 80.0344)" width="60.337" height="33.391"></rect> </g> </g> <g> <g> <rect x="433.399" y="336.173" transform="matrix(0.5 -0.866 0.866 0.5 -92.2165 572.9561)" width="33.391" height="60.337"></rect> </g> </g> <g> <g> <rect x="449.937" y="237.579" width="60.338" height="33.391"></rect> </g> </g> <g> <g> <rect x="419.916" y="125.509" transform="matrix(0.866 -0.5 0.5 0.866 -10.8012 244.0997)" width="60.337" height="33.391"></rect> </g> </g> <g> <g> <rect x="337.871" y="43.496" transform="matrix(0.5 -0.866 0.866 0.5 131.8891 348.8247)" width="60.337" height="33.391"></rect> </g> </g> </g></svg>